<?xml version="1.0" standalone="no"?>
<!DOCTYPE svg PUBLIC "-//W3C//DTD SVG 20010904//EN"
 "http://www.w3.org/TR/2001/REC-SVG-20010904/DTD/svg10.dtd">
<svg version="1.0" xmlns="http://www.w3.org/2000/svg"
 width="209.000000pt" height="165.000000pt" viewBox="0 0 209.000000 165.000000"
 preserveAspectRatio="xMidYMid meet">

<g transform="translate(0.000000,165.000000) scale(0.100000,-0.100000)"
fill="#465eb2" stroke="none">
<path d="M883 1439 c-19 -12 -43 -43 -60 -77 -27 -55 -28 -62 -27 -207 0 -132
4 -160 26 -235 28 -92 13 -85 -23 9 -38 104 -51 180 -47 281 3 52 10 106 17
119 13 23 12 23 -15 17 -86 -21 -148 -107 -160 -222 -12 -111 36 -283 103
-374 l26 -35 -36 34 c-78 74 -145 254 -132 353 8 53 6 54 -33 34 -69 -36 -105
-106 -104 -201 1 -102 32 -191 88 -254 55 -61 45 -67 -18 -11 -46 40 -80 104
-93 173 l-7 38 -24 -22 c-13 -12 -22 -24 -20 -27 3 -2 0 -16 -5 -30 -20 -51
-13 -140 16 -197 28 -58 96 -125 127 -125 11 0 36 14 58 31 70 57 168 45 211
-25 37 -61 11 -144 -56 -172 -52 -21 -76 -16 -27 6 105 48 80 190 -33 190 -15
0 -43 -7 -62 -16 -98 -47 -103 -187 -9 -280 51 -52 106 -69 196 -60 116 10
197 66 244 166 32 68 27 238 -14 510 -25 166 -33 249 -33 365 -1 147 1 161 38
248 6 15 1 17 -36 17 -27 0 -56 -8 -76 -21z"/>
<path d="M1070 1455 c0 -3 7 -22 15 -42 40 -95 36 -278 -10 -593 -36 -236 -43
-398 -22 -471 34 -115 135 -188 272 -196 62 -4 76 -1 125 24 77 39 115 102
115 189 0 53 -4 67 -25 89 -32 34 -72 55 -105 55 -34 0 -82 -25 -95 -49 -29
-55 10 -133 73 -147 17 -4 26 -9 20 -11 -24 -8 -82 18 -108 48 -66 79 1 199
110 199 30 0 95 -31 114 -54 34 -41 114 13 161 108 30 60 32 72 28 135 -4 48
-12 80 -28 106 -12 20 -24 34 -26 32 -3 -2 -11 -30 -20 -62 -19 -75 -47 -120
-97 -156 -57 -41 -60 -36 -11 15 55 58 85 138 92 241 4 69 1 87 -18 128 -22
47 -66 89 -105 101 -19 5 -20 2 -17 -67 3 -55 -2 -89 -18 -138 -26 -75 -77
-164 -116 -199 l-28 -25 17 25 c85 125 127 286 106 405 -19 107 -75 181 -150
199 l-26 6 14 -63 c27 -114 -5 -308 -68 -417 -11 -19 -17 -26 -14 -15 39 121
48 177 49 305 1 131 0 137 -29 195 -35 71 -80 105 -136 105 -22 0 -39 -2 -39
-5z"/>
</g>
</svg>
